PathFileType	4	(X/Y/Z)	C:/Users/beibeiliu/ov580/test_trc/User1\sequence.22_training_dense_left.trc
DataRate	CameraRate	NumFrames	NumMarkers	Units	OrigDataRate	OrigDataStartFrame	OrigNumFrames
120	120	13	19	mm	120	205	273
Frame#	Time	ThumbCMC			ThumbMCP			ThumbIP			ThumbTip			IndexMCP			IndexPIP			IndexTip			MiddleMCP			MiddlePIP			MiddleTip			RingMCP			RingPIP			RingTip			PinkyMCP			PinkyPIP			PinkyTip			BackHand1			BackHand2			BackHand3	
		X0	Y0	Z0	X1	Y1	Z1	X2	Y2	Z2	X3	Y3	Z3	X4	Y4	Z4	X5	Y5	Z5	X6	Y6	Z6	X7	Y7	Z7	X8	Y8	Z8	X9	Y9	Z9	X10	Y10	Z10	X11	Y11	Z11	X12	Y12	Z12	X13	Y13	Z13	X14	Y14	Z14	X15	Y15	Z15	X16	Y16	Z16	X17	Y17	Z17	X18	Y18	Z18	
204	1.7	-187.286	45.8196	9.92845	-169.031	36.8244	-22.3146	-164.684	27.8912	-44.5323	-159.069	18.9584	-70.7481	-230.966	27.1435	-61.3638	-226.666	8.55826	-82.3595	-212.465	-8.27778	-102.181	-225.72	-1.73894	-52.6956	-191.649	-9.41001	-55.5433	-186.532	5.14315	-18.1703	-220.759	-18.0502	-40.547	-187.151	-18.209	-30.8668	-191.929	-4.98706	-3.76868	-222.906	-34.4862	-22.1443	-193.235	-27.8895	-16.9422	-200.017	-7.76701	8.08742	-243.29	5.35818	11.7501	-232.618	11.4083	46.5613	-227.39	39.2546	20.646	
205	1.70833	-184.856	48.9501	8.08519	-167.852	36.9219	-19.0542	-166.438	27.5497	-48.8325	-157.386	20.838	-69.4766	-231.243	26.8491	-56.3474	-225.128	12.4291	-84.1872	-213.4	-7.81094	-100.403	-225.437	1.1695	-54.1162	-191.487	-10.7757	-53.6946	-187.258	7.27265	-17.1589	-219.771	-22.7517	-41.1257	-187.219	-20.9959	-30.3675	-190.533	-2.21494	-5.76301	-219.897	-33.7827	-25.3576	-193.64	-27.9657	-16.7488	-199.585	-4.91139	4.20803	-245.156	5.96278	12.355	-234.022	7.31535	48.3557	-227.79	37.6626	21.0511	
206	1.71667	-186.08	46.8506	7.74402	-169.021	35.446	-20.4037	-166.72	26.5921	-47.1369	-158.195	20.1431	-72.7259	-231.927	23.7509	-56.5845	-224.71	10.2006	-85.0631	-213.086	-7.2039	-101.936	-223.641	0.348177	-54.6673	-191.136	-11.127	-51.6764	-186.085	8.27586	-19.0622	-222.129	-21.6557	-39.1363	-187.655	-20.0964	-32.4398	-194.446	-3.64702	-2.06929	-223.426	-33.8459	-21.2216	-194.181	-26.5913	-16.7133	-203.438	-2.63096	6.3088	-244.824	6.39679	11.8847	-233.834	8.67958	50.1631	-226.618	39.495	17.6222	
207	1.725	-186.009	46.7664	10.1288	-167.866	35.9893	-20.1312	-165.209	29.2209	-48.8853	-155.74	22.8363	-69.7678	-231.349	24.8413	-59.5006	-225.335	11.9415	-82.9908	-213.988	-6.82297	-99.9702	-223.895	-1.76361	-54.2264	-191.19	-10.5111	-53.3496	-186.321	7.55044	-16.7763	-220.059	-17.8925	-41.4122	-189.388	-23.2647	-31.4054	-192.264	-3.23022	-5.26709	-221.095	-37.5074	-21.5596	-192.45	-29.4128	-15.2795	-203.142	-7.39738	9.20475	-243.536	5.89044	12.6552	-235.4	10.5008	46.9119	-225.661	38.5391	21.5946	
208	1.73333	-185.491	46.6939	11.1372	-171.644	35.1758	-20.6007	-164.148	30.4695	-48.8146	-156.65	22.0201	-72.2493	-232.69	21.9496	-58.1117	-226.882	11.0265	-84.9111	-216.337	-8.44042	-100.297	-226.376	-2.62143	-52.6027	-191.132	-9.36809	-52.9668	-188.282	8.15094	-14.9949	-222.443	-23.2454	-38.8886	-187.72	-18.0129	-31.14	-194.365	-1.83161	-2.45402	-221.305	-34.2283	-23.7856	-193.644	-26.2295	-14.3522	-200.61	-7.41675	5.66295	-242.909	4.14083	14.4919	-234.06	8.39747	48.4661	-227.603	35.9331	20.8849	
209	1.74167	-187.119	46.6253	9.9241	-170.081	36.9159	-18.5313	-166.217	30.1828	-50.7075	-158.15	23.6824	-69.7296	-233.617	24.111	-56.1402	-228.714	7.63393	-82.0924	-218.227	-12.523	-100.739	-226.71	-5.13098	-52.454	-189.98	-10.7254	-51.8168	-186.185	11.3054	-18.6967	-222.575	-20.2963	-40.1863	-188.166	-19.5752	-34.25	-194.289	-0.715682	-3.36558	-220.849	-37.5428	-21.7273	-192.676	-29.5836	-14.2081	-204.715	-6.28671	7.96576	-245.206	2.56262	13.856	-234.978	10.9229	43.5157	-229.338	36.5599	21.9764	
210	1.75	-191.22	47.4466	6.11672	-172.261	36.2982	-20.757	-168.42	29.8444	-48.5828	-158.165	25.5049	-72.1774	-236.177	23.3264	-61.2793	-231.459	7.48416	-85.9236	-222.057	-12.7748	-99.9711	-225.362	-5.60036	-54.6298	-193.108	-9.75009	-55.232	-189.571	9.82452	-16.3888	-220.992	-24.4804	-39.2873	-189.829	-19.5315	-35.0832	-193.696	-1.55085	-5.70322	-221.899	-39.9584	-21.5458	-192.349	-28.7633	-15.3292	-203.346	-5.2283	5.14558	-245.505	3.67875	15.2385	-232.924	7.82954	48.9306	-230.921	36.6549	16.982	
211	1.75833	-193.68	46.3946	7.10323	-176.851	36.7667	-24.5557	-168.854	32.4529	-51.8076	-160.523	26.2858	-69.3605	-239.219	20.0163	-61.7868	-235.313	3.14224	-81.9541	-224.575	-17.8844	-102.195	-227.345	-8.54961	-53.1248	-193.294	-11.264	-55.3707	-190.059	8.22817	-17.0442	-217.916	-27.2441	-41.0696	-186.401	-19.585	-32.0204	-195.237	-0.773641	-3.63634	-216.952	-39.9716	-23.5258	-192.286	-28.8077	-17.0919	-200.42	-5.26437	3.9511	-247.26	-2.76406	13.3426	-235.432	5.27896	45.4584	-233.475	38.1909	16.8873	
212	1.76667	-195.927	51.1787	3.7426	-175.59	43.6481	-23.4658	-172.243	33.6284	-52.3398	-163.058	26.7105	-70.6795	-240.908	14.2344	-60.1349	-237.846	-0.561053	-81.72	-227.084	-19.1022	-101.568	-227.619	-7.08471	-53.2592	-192.266	-14.1688	-52.7624	-189	9.44534	-20.6669	-218.585	-27.5625	-39.4279	-185.588	-18.184	-31.3924	-191.527	-2.51181	-6.04865	-217.93	-40.0036	-19.434	-189.351	-28.5018	-16.1867	-197.632	-8.89834	7.26641	-244.729	-6.76814	15.3139	-235.01	4.20337	48.8409	-234.824	29.4141	16.8274	
213	1.775	-199.676	46.726	6.99436	-177.382	42.6566	-24.8881	-175.299	32.2533	-51.3446	-164.566	28.1987	-75.7573	-241.954	5.97408	-59.7751	-238.321	-6.83858	-81.2461	-228.327	-26.6958	-95.9579	-222.645	-16.0364	-54.6635	-191.174	-15.4622	-55.2652	-187.351	4.50985	-20.5318	-215.236	-32.0536	-36.8991	-182.61	-20.3898	-31.2917	-188.774	-1.16284	-6.52073	-210.905	-41.9464	-18.4578	-186.577	-26.0619	-14.3448	-196.893	-4.64972	9.43321	-243.397	-11.0129	15.5062	-233.017	1.48176	47.7218	-234.415	30.8418	17.8684	
214	1.78333	-201.93	47.455	4.57039	-182.063	39.772	-27.2408	-175.947	31.7681	-52.6621	-165.284	27.8374	-71.0661	-242.529	2.08599	-58.7575	-237.497	-15.22	-77.8153	-226.263	-32.5106	-98.9062	-223.39	-18.1816	-51.7537	-186.733	-12.227	-54.7747	-186.548	9.16633	-22.4842	-210.595	-35.0389	-34.3564	-179.518	-23.6139	-30.3253	-188.507	-2.37981	-2.8141	-205.53	-44.5138	-15.9901	-181.15	-25.7985	-10.1236	-194.855	-4.14472	12.1675	-243.093	-12.0539	13.9152	-232.327	2.50418	46.6001	-238.526	26.0866	17.5786	
215	1.79167	-203.739	44.9042	1.69573	-182.758	40.7179	-26.6406	-174.961	33.6009	-52.4906	-164.225	30.3875	-70.0452	-239.581	-1.76839	-53.4675	-236.018	-20.3578	-75.1613	-224.464	-37.722	-93.4306	-216.198	-24.1412	-51.5989	-185.009	-16.744	-54.8231	-184.592	9.47221	-20.7189	-202.466	-34.8572	-36.8367	-174.635	-23.1818	-27.2107	-183.535	-0.079765	-4.51863	-196.831	-46.0956	-14.2677	-176.699	-25.9023	-10.6109	-191.678	-2.031	10.8434	-237.603	-16.1002	15.1249	-232.508	4.10008	47.5976	-239.383	23.7304	13.5026	
216	1.8	-204.953	46.9346	4.07746	-183.419	39.916	-28.6866	-174.335	36.3676	-51.4945	-164.204	31.3365	-72.6601	-238.22	-6.79898	-54.907	-232.161	-27.9672	-77.4069	-222.003	-43.3279	-93.4091	-214.877	-22.9774	-51.3153	-178.371	-14.7305	-53.3015	-182.234	6.79737	-19.4867	-201.282	-35.7537	-32.1436	-170.842	-20.2365	-25.5257	-182.654	2.29066	-2.57463	-193.337	-43.9946	-14.1762	-172.982	-24.6244	-9.47455	-190.003	-0.672794	9.37502	-236.799	-14.9507	13.6137	-230.687	-1.03099	46.1507	-237.803	21.0395	13.5816	
